<svg version="1.1" class="svg-bird" xmlns="http://www.w3.org/2000/svg" x="0" y="0" viewBox="0 0 151.9 170.2" xml:space="preserve"><path class="svg-bird-path" fill="#252729" d="M104.3 118.1l-9.4-3.2s-6.3-12.1-6.7-13.5c-.4-1.3-12.1-35.1-10.3-35.1 1.8 0-10.3-20.7-10.3-20.7L56.2 34l1.3-.5s-1.8-8.1 4.9-10.8c0 0 11.2-2.2 17.1-.9 5.8 1.3.9-1.3.9-1.3s0-.9-1.3-2.3c-1.3-1.3-11.2-4-11.2-4l-.9-1.7S58-2.3 42.7.4c0 0-11.5 1-15.4 2.2-.6.2-1 .4-1.2.5-1.3 1.3-11.2 13.5-10.8 24.3l-.9 13S.5 49.4 2.7 66.5c0 0-.9 20.2 13 36.9l10.8 13.5-10.3 8.5S1.4 132.6 0 142l2.8-.5 6.9-7.2v4.9l5.7-6.3s5.8 1.3 7.6 2.2l-2.7-7.6 9.9-8.1 15.3 11.2-13 20.7s-10.8 4.9-10.8 15.3c0 0 5.4-8.1 7.2-8.1l-.5 11.7 7.2-11.7c4.5 1.3.4-5.6.4-5.6L49 136h4.9s6.7 7.4 10.3 7.9c3.6.4 1.4-.1 1.4-.1s3.6-5 2.2-9.5L79 128s8.5 30.5 13 32.8c4.5 2.2 1.8.4 1.8.4L91 132c1.3 1.6 2.9-2.2 2.9-2.2l-.5-.1 5.9-.4 18.9 10.3 17.5 3.6.5-2.2 12.1 5.8 3.6-.9-47.6-27.8z"/></svg>