<svg version="1.1" id="icon" xmlns="http://www.w3.org/2000/svg" x="0" y="0" viewBox="-422 308.8 85 64.5" xml:space="preserve"><style type="text/css">.st0{fill:#1d1d1b}</style><g id="frame2"><path class="st0" d="M-348.9 308.9h-.4l-33 7.4h13.7l18.8-4.2.9 4.2h3.1l-1.3-6c-.2-.9-.9-1.4-1.8-1.4zM-337 355.2l-4.1-18.3v13.7l.9 4.1-.9.2v3.1l2.7-.6c1-.3 1.6-1.2 1.4-2.2zM-422 327l4.1 18.3v-13.7l-.9-4.1.9-.2v-3l-2.7.6c-1 .2-1.6 1.2-1.4 2.1zM-390.5 365.9l-18.8 4.2-.9-4.2h-3.1l1.4 6c.2.8.9 1.4 1.8 1.4h.4l33-7.4h-13.8z"/></g><path id="frame1" class="st0" d="M-344.1 319.3v43.6h-70.7v-43.6h70.7m1.1-3h-73.1c-1 0-1.8.8-1.8 1.8v46c0 1 .8 1.8 1.8 1.8h73.1c1 0 1.8-.8 1.8-1.8v-46c.1-1-.8-1.8-1.8-1.8z"/><g id="camera"><path class="st0" d="M-379.1 337.5c-2.9 0-5.3 2.4-5.3 5.3s2.4 5.3 5.3 5.3 5.3-2.4 5.3-5.3c.1-2.9-2.3-5.3-5.3-5.3z"/><path class="st0" d="M-362.5 330.6h-10l-.7-2.8c0-.6-.5-1.1-1.1-1.1h-9c-.6 0-1.1.5-1.1 1.1l-.7 2.8h-10.6c-1.6 0-3.2 1.1-3.2 2.7v19.1c0 1.6 1.6 3.1 3.2 3.1h33.2c1.6 0 2.4-1.5 2.4-3.1v-19.1c0-1.6-.8-2.7-2.4-2.7zm-16.6 20.9c-4.8 0-8.7-3.9-8.7-8.7 0-4.8 3.9-8.7 8.7-8.7 4.8 0 8.7 3.9 8.7 8.7 0 4.8-3.9 8.7-8.7 8.7z"/></g></svg>