<?xml version="1.0" encoding="utf-8"?>
<!-- Generator: Adobe Illustrator 19.1.0, SVG Export Plug-In . SVG Version: 6.00 Build 0)  -->
<svg version="1.1" id="icon" xmlns="http://www.w3.org/2000/svg" xmlns:xlink="http://www.w3.org/1999/xlink" x="0px" y="0px"
	 viewBox="-422 308.8 85 64.5" style="enable-background:new -422 308.8 85 64.5;" xml:space="preserve">
<style type="text/css">
	.st0{fill:#1D1D1B;}
</style>
<g id="frame2">
	<path class="st0" d="M-348.9,308.9c-0.1,0-0.3,0-0.4,0l-33,7.4h13.7l18.8-4.2l0.9,4.2h3.1l-1.3-6
		C-347.3,309.4-348,308.9-348.9,308.9z"/>
	<path class="st0" d="M-337,355.2l-4.1-18.3v13.7l0.9,4.1l-0.9,0.2v3.1l2.7-0.6C-337.4,357.1-336.8,356.2-337,355.2z"/>
	<path class="st0" d="M-422,327l4.1,18.3v-13.7l-0.9-4.1l0.9-0.2v-3l-2.7,0.6C-421.6,325.1-422.2,326.1-422,327z"/>
	<path class="st0" d="M-390.5,365.9l-18.8,4.2l-0.9-4.2h-3.1l1.4,6c0.2,0.8,0.9,1.4,1.8,1.4c0.1,0,0.3,0,0.4,0l33-7.4H-390.5
		L-390.5,365.9z"/>
</g>
<path id="frame1" class="st0" d="M-344.1,319.3v43.6h-70.7v-43.6H-344.1 M-343,316.3h-73.1c-1,0-1.8,0.8-1.8,1.8v46
	c0,1,0.8,1.8,1.8,1.8h73.1c1,0,1.8-0.8,1.8-1.8v-46C-341.1,317.1-342,316.3-343,316.3L-343,316.3z"/>
<g id="camera">
	<path class="st0" d="M-379.1,337.5c-2.9,0-5.3,2.4-5.3,5.3c0,2.9,2.4,5.3,5.3,5.3s5.3-2.4,5.3-5.3
		C-373.7,339.9-376.1,337.5-379.1,337.5z"/>
	<path class="st0" d="M-362.5,330.6h-10l-0.7-2.8c0-0.6-0.5-1.1-1.1-1.1h-9c-0.6,0-1.1,0.5-1.1,1.1l-0.7,2.8h-10.6
		c-1.6,0-3.2,1.1-3.2,2.7v19.1c0,1.6,1.6,3.1,3.2,3.1h33.2c1.6,0,2.4-1.5,2.4-3.1v-19.1C-360.1,331.7-360.9,330.6-362.5,330.6z
		 M-379.1,351.5c-4.8,0-8.7-3.9-8.7-8.7c0-4.8,3.9-8.7,8.7-8.7c4.8,0,8.7,3.9,8.7,8.7C-370.4,347.6-374.3,351.5-379.1,351.5z"/>
</g>
</svg>
